<?xml version="1.0" standalone="no"?>
<!DOCTYPE svg PUBLIC "-//W3C//DTD SVG 20010904//EN"
 "http://www.w3.org/TR/2001/REC-SVG-20010904/DTD/svg10.dtd">
<svg version="1.0" xmlns="http://www.w3.org/2000/svg"
 width="700.000000pt" height="700.000000pt" viewBox="0 0 700.000000 700.000000"
 preserveAspectRatio="xMidYMid meet">
<metadata>
Created by potrace 1.14, written by Peter Selinger 2001-2017
</metadata>
<g transform="translate(0.000000,700.000000) scale(0.100000,-0.100000)"
fill="#000000" stroke="none">
<path d="M1137 6124 c-1 -1 -24 -4 -52 -7 -230 -24 -445 -226 -491 -462 -4
-22 -8 -992 -8 -2155 -1 -2314 -5 -2166 57 -2295 79 -163 235 -283 418 -321
46 -10 4791 -12 4852 -2 241 36 430 208 488 444 10 38 13 534 14 2153 1 1158
-2 2125 -6 2150 -14 79 -18 92 -49 158 -76 164 -230 288 -401 324 -39 9 -692
12 -2437 13 -1311 1 -2384 0 -2385 0z m4694 -1183 c0 -9 2 -796 2 -1748 l2
-1733 -75 0 c-99 -1 -4377 -1 -4500 0 l-95 0 2 1738 c0 955 2 1742 2 1748 1 9
597 12 2331 12 2137 -1 2330 -2 2331 -17z"/>
<path d="M1630 4372 c0 -1 262 -263 582 -582 320 -319 580 -582 577 -584 -2
-3 -262 -263 -576 -579 -315 -316 -573 -577 -573 -579 0 -3 184 -6 409 -6
l408 0 500 501 c457 459 502 507 520 557 28 75 24 162 -10 232 -21 42 -127
154 -522 548 l-495 495 -410 0 c-225 0 -410 -1 -410 -3z"/>
<path d="M3794 2615 c-3 -6 -3 -136 -2 -290 l3 -280 728 -1 727 -2 0 289 c0
159 -3 290 -7 290 -5 1 -331 2 -727 3 -478 1 -720 -2 -722 -9z"/>
</g>
</svg>
